<?xml version="1.0" encoding="utf-8"?>
<!-- Generator: Adobe Illustrator 28.3.0, SVG Export Plug-In . SVG Version: 6.00 Build 0)  -->
<svg version="1.1" id="Layer_1" xmlns="http://www.w3.org/2000/svg" xmlns:xlink="http://www.w3.org/1999/xlink" x="0px" y="0px"
	 viewBox="0 0 100 100" style="enable-background:new 0 0 100 100;" xml:space="preserve">
<style type="text/css">
	.st0{display:none;fill:#EF7C4C;}
	.st1{fill:none;}
	.st2{display:none;}
	.st3{display:inline;fill:#FFFFFF;}
	.st4{fill:#FFFFFF;}
</style>
<circle class="st0" cx="50.5" cy="150" r="535"/>
<path id="SVGID_x5F_1_x5F_" class="st1" d="M385.2,155c0,184.8-149.8,334.7-334.7,334.7S-284.2,339.8-284.2,155
	s149.8-334.7,334.7-334.7S385.2-29.9,385.2,155z"/>
<text class="st2"><textPath  xlink:href="#SVGID_x5F_1_x5F_" startOffset="76.6764%"  style="display:inline;">
<tspan  style="fill:#1A1A1A; font-family:'Resolve-BoldCm'; font-size:216px; letter-spacing:200;">In Winston • For The World • </tspan></textPath>
</text>
<g class="st2">
	<path class="st3" d="M-132,135.6H3.8h93.3H233c2.1,0,3.9-1.2,4.7-3.1c0.8-1.9,0.4-4.1-1.1-5.5L54.1-55.6c-2-2-5.2-2-7.2,0
		l-182.5,182.5c-1.5,1.5-1.9,3.6-1.1,5.6C-136,134.4-134.1,135.6-132,135.6z"/>
	<path class="st3" d="M237.7,167.5c-0.8-1.9-2.6-3.1-4.7-3.1H97.1H3.8H-132c-2.1,0-3.9,1.2-4.7,3.1c-0.8,1.9-0.4,4.1,1.1,5.6
		L46.9,355.5c1,1,2.3,1.5,3.6,1.5c1.3,0,2.6-0.5,3.6-1.5L236.6,173C238.1,171.6,238.5,169.4,237.7,167.5z"/>
</g>
<g>
	<path class="st4" d="M5.9,46.5h32.8h22.5h32.8c0.5,0,0.9-0.3,1.1-0.8c0.2-0.5,0.1-1-0.3-1.3L50.9,0.4c-0.5-0.5-1.3-0.5-1.7,0
		L5.1,44.4c-0.4,0.4-0.5,0.9-0.3,1.3C5,46.2,5.4,46.5,5.9,46.5z"/>
	<path class="st4" d="M95.2,54.2c-0.2-0.5-0.6-0.8-1.1-0.8H61.3H38.7H5.9c-0.5,0-0.9,0.3-1.1,0.8c-0.2,0.5-0.1,1,0.3,1.3l44.1,44.1
		c0.2,0.2,0.6,0.4,0.9,0.4c0.3,0,0.6-0.1,0.9-0.4l44.1-44.1C95.3,55.2,95.4,54.7,95.2,54.2z"/>
</g>
</svg>
